#N canvas -8 -8 1920 1007 12;
#X obj 513 614 loop;
#X obj 512 504 tgl 40 0 empty empty empty 17 7 0 10 -262144 -4032 -1
0 1;
#X obj 514 656 dac~;
#X obj 512 551 bng 40 250 50 0 empty empty empty 17 7 0 10 -262144
-258113 -1;
#X obj 562 614 loop;
#X obj 561 504 tgl 40 0 empty empty empty 17 7 0 10 -262144 -4032 -1
0 1;
#X obj 562 656 dac~;
#X obj 561 551 bng 40 250 50 0 empty empty empty 17 7 0 10 -262144
-258113 -1;
#X obj 610 614 loop;
#X obj 609 504 tgl 40 0 empty empty empty 17 7 0 10 -262144 -4032 -1
0 1;
#X obj 611 656 dac~;
#X obj 609 551 bng 40 250 50 0 empty empty empty 17 7 0 10 -262144
-258113 -1;
#X obj 657 614 loop;
#X obj 656 504 tgl 40 0 empty empty empty 17 7 0 10 -262144 -4032 -1
0 1;
#X obj 657 656 dac~;
#X obj 656 551 bng 40 250 50 0 empty empty empty 17 7 0 10 -262144
-258113 -1;
#X obj 705 614 loop;
#X obj 704 504 tgl 40 0 empty empty empty 17 7 0 10 -262144 -4032 -1
0 1;
#X obj 706 656 dac~;
#X obj 704 551 bng 40 250 50 0 empty empty empty 17 7 0 10 -262144
-258113 -1;
#X obj 753 614 loop;
#X obj 752 504 tgl 40 0 empty empty empty 17 7 0 10 -262144 -4032 -1
0 1;
#X obj 754 656 dac~;
#X obj 752 551 bng 40 250 50 0 empty empty empty 17 7 0 10 -262144
-258113 -1;
#X obj 801 614 loop;
#X obj 800 504 tgl 40 0 empty empty empty 17 7 0 10 -262144 -4032 -1
0 1;
#X obj 802 656 dac~;
#X obj 800 551 bng 40 250 50 0 empty empty empty 17 7 0 10 -262144
-258113 -1;
#X obj 849 615 loop;
#X obj 848 505 tgl 40 0 empty empty empty 17 7 0 10 -262144 -4032 -1
0 1;
#X obj 850 656 dac~;
#X obj 848 552 bng 40 250 50 0 empty empty empty 17 7 0 10 -262144
-258113 -1;
#X obj 652 312 hradio 50 1 0 2 empty empty empty 0 -8 0 10 -262144
-4160 -4160 0;
#X obj 1431 151 sel 1;
#X obj 1392 189 bng 15 250 50 0 empty empty empty 17 7 0 10 -262144
-1 -1;
#X obj 1499 187 bng 15 250 50 0 empty empty empty 17 7 0 10 -262144
-1 -1;
#X obj 1392 295 s granOnOff;
#X obj 1499 296 s waveOnOff;
#X obj 1392 209 t b b;
#X obj 1499 207 t b b;
#X msg 1392 246 0;
#X msg 1424 246 1;
#X msg 1499 245 0;
#X msg 1531 245 1;
#X text 757 346 Granulizer;
#X text 579 345 Wavetable;
#X connect 0 0 2 0;
#X connect 0 0 2 1;
#X connect 1 0 0 1;
#X connect 3 0 0 0;
#X connect 4 0 6 0;
#X connect 4 0 6 1;
#X connect 5 0 4 1;
#X connect 7 0 4 0;
#X connect 8 0 10 0;
#X connect 8 0 10 1;
#X connect 9 0 8 1;
#X connect 11 0 8 0;
#X connect 12 0 14 0;
#X connect 12 0 14 1;
#X connect 13 0 12 1;
#X connect 15 0 12 0;
#X connect 16 0 18 0;
#X connect 16 0 18 1;
#X connect 17 0 16 1;
#X connect 19 0 16 0;
#X connect 20 0 22 0;
#X connect 20 0 22 1;
#X connect 21 0 20 1;
#X connect 23 0 20 0;
#X connect 24 0 26 0;
#X connect 24 0 26 1;
#X connect 25 0 24 1;
#X connect 27 0 24 0;
#X connect 28 0 30 0;
#X connect 28 0 30 1;
#X connect 29 0 28 1;
#X connect 31 0 28 0;
#X connect 32 0 33 0;
#X connect 33 0 35 0;
#X connect 33 1 34 0;
#X connect 34 0 38 0;
#X connect 35 0 39 0;
#X connect 38 0 40 0;
#X connect 38 1 41 0;
#X connect 39 0 42 0;
#X connect 39 1 43 0;
#X connect 40 0 36 0;
#X connect 41 0 37 0;
#X connect 42 0 37 0;
#X connect 43 0 36 0;
#X coords 0 -1 1 1 800 300 2 300 300;
