#N canvas -8 -8 1920 1007 12;
#X obj 625 501 tgl 40 0 empty empty empty 17 7 0 10 -262144 -4032 -1
0 1;
#X obj 625 548 bng 40 250 50 0 empty empty empty 17 7 0 10 -262144
-258113 -1;
#X obj 674 501 tgl 40 0 empty empty empty 17 7 0 10 -262144 -4032 -1
0 1;
#X obj 674 548 bng 40 250 50 0 empty empty empty 17 7 0 10 -262144
-258113 -1;
#X obj 722 501 tgl 40 0 empty empty empty 17 7 0 10 -262144 -4032 -1
0 1;
#X obj 722 548 bng 40 250 50 0 empty empty empty 17 7 0 10 -262144
-258113 -1;
#X obj 769 501 tgl 40 0 empty empty empty 17 7 0 10 -262144 -4032 -1
0 1;
#X obj 769 548 bng 40 250 50 0 empty empty empty 17 7 0 10 -262144
-258113 -1;
#X obj 817 501 tgl 40 0 empty empty empty 17 7 0 10 -262144 -4032 -1
0 1;
#X obj 817 548 bng 40 250 50 0 empty empty empty 17 7 0 10 -262144
-258113 -1;
#X obj 865 501 tgl 40 0 empty empty empty 17 7 0 10 -262144 -4032 -1
0 1;
#X obj 865 548 bng 40 250 50 0 empty empty empty 17 7 0 10 -262144
-258113 -1;
#X obj 913 501 tgl 40 0 empty empty empty 17 7 0 10 -262144 -4032 -1
0 1;
#X obj 913 548 bng 40 250 50 0 empty empty empty 17 7 0 10 -262144
-258113 -1;
#X obj 961 502 tgl 40 0 empty empty empty 17 7 0 10 -262144 -4032 -1
0 1;
#X obj 961 549 bng 40 250 50 0 empty empty empty 17 7 0 10 -262144
-258113 -1;
#X obj 765 309 hradio 50 1 0 2 empty empty empty 0 -8 0 10 -262144
-4160 -4160 1;
#X obj 1431 151 sel 1;
#X obj 1392 189 bng 15 250 50 0 empty empty empty 17 7 0 10 -262144
-1 -1;
#X obj 1499 187 bng 15 250 50 0 empty empty empty 17 7 0 10 -262144
-1 -1;
#X obj 1392 295 s granOnOff;
#X obj 1499 296 s waveOnOff;
#X obj 1392 209 t b b;
#X obj 1499 207 t b b;
#X msg 1392 246 0;
#X msg 1424 246 1;
#X msg 1499 245 0;
#X msg 1531 245 1;
#X text 870 343 Granulizer;
#X text 692 342 Wavetable;
#X obj 1315 418 s tMean;
#X obj 1316 443 s tRange;
#X obj 1315 390 s lRange;
#X obj 1315 551 s spMean;
#X obj 1316 576 s spRange;
#X obj 1158 320 hsl 125 15 0 1 0 0 empty stMeanH empty -2 -8 0 10 -262144
-1 -1 6040 1;
#X obj 1158 341 hsl 125 15 0 1 0 0 empty stRangeH empty -2 -8 0 10
-262144 -1 -1 4740 1;
#X obj 1314 317 s stMean;
#X obj 1315 342 s stRange;
#X obj 1315 366 s lMean;
#X obj 894 400 hsl 128 15 0 1 0 0 empty panningH empty -2 -8 0 10 -262144
-1 -1 12700 1;
#X obj 1210 820 s panning;
#X obj 1316 472 s volMean;
#X obj 1316 498 s volRange;
#X obj 1575 819 s octaveLock;
#X obj 890 468 tgl 15 0 empty empty empty 17 7 0 10 -262144 -1 -1 1
1;
#X obj 1125 270 s grainsNum;
#X floatatom 1029 432 5 0 0 0 - - -;
#X obj 894 435 hsl 128 15 0 32 0 0 empty empty empty -2 -8 0 10 -262144
-1 -1 3800 1;
#X obj 1089 273 int;
#X text 1157 301 start;
#X text 1129 317 min;
#X text 1115 338 range;
#X obj 1158 382 hsl 125 15 0 1 0 0 empty stMeanH empty -2 -8 0 10 -262144
-1 -1 7940 1;
#X obj 1158 403 hsl 125 15 0 1 0 0 empty stRangeH empty -2 -8 0 10
-262144 -1 -1 4640 1;
#X text 1129 379 min;
#X text 1115 400 range;
#X text 1157 363 length;
#X obj 1158 437 hsl 125 15 0 1 0 0 empty stMeanH empty -2 -8 0 10 -262144
-1 -1 5040 1;
#X obj 1158 458 hsl 125 15 0 1 0 0 empty stRangeH empty -2 -8 0 10
-262144 -1 -1 1240 1;
#X text 1129 434 min;
#X text 1115 455 range;
#X text 1157 418 time;
#X obj 1157 497 hsl 125 15 0 1 0 0 empty stMeanH empty -2 -8 0 10 -262144
-1 -1 4940 1;
#X obj 1157 518 hsl 125 15 0 1 0 0 empty stRangeH empty -2 -8 0 10
-262144 -1 -1 8540 1;
#X text 1128 494 min;
#X text 1114 515 range;
#X text 1156 478 volume;
#X obj 1156 554 hsl 125 15 0 1 0 0 empty stMeanH empty -2 -8 0 10 -262144
-1 -1 5340 1;
#X obj 1156 575 hsl 125 15 0 1 0 0 empty stRangeH empty -2 -8 0 10
-262144 -1 -1 8240 1;
#X text 1127 551 min;
#X text 1113 572 range;
#X text 1155 535 speed;
#X msg 1316 525 1;
#X text 892 379 panning;
#X text 891 417 number of grains;
#X text 911 467 octave lock;
#X obj 999 468 tgl 15 0 empty empty empty 17 7 0 10 -262144 -1 -1 1
1;
#X text 1022 467 dry audio;
#X obj 1135 642 s dryAudio;
#X obj 612 680 looper_1~;
#X obj 684 680 looper_2~;
#X obj 756 680 looper_3~;
#X obj 678 781 dac~;
#X obj 793 394 bng 15 250 50 0 empty empty empty 17 7 0 10 -258113
-1 -258113;
#X text 813 392 reset;
#X msg 911 641 \; audioData1 sinesum 441000 0;
#X msg 911 686 \; audioData2 sinesum 441000 0;
#X msg 910 729 \; audioData3 sinesum 441000 0;
#X connect 0 0 80 1;
#X connect 1 0 80 0;
#X connect 2 0 81 1;
#X connect 3 0 81 0;
#X connect 4 0 82 1;
#X connect 5 0 82 0;
#X connect 16 0 17 0;
#X connect 17 0 19 0;
#X connect 17 1 18 0;
#X connect 18 0 22 0;
#X connect 19 0 23 0;
#X connect 22 0 24 0;
#X connect 22 1 25 0;
#X connect 23 0 26 0;
#X connect 23 1 27 0;
#X connect 24 0 20 0;
#X connect 25 0 21 0;
#X connect 26 0 21 0;
#X connect 27 0 20 0;
#X connect 35 0 37 0;
#X connect 36 0 38 0;
#X connect 40 0 41 0;
#X connect 45 0 44 0;
#X connect 47 0 46 0;
#X connect 48 0 49 0;
#X connect 49 0 47 0;
#X connect 53 0 39 0;
#X connect 54 0 32 0;
#X connect 58 0 30 0;
#X connect 59 0 31 0;
#X connect 63 0 42 0;
#X connect 64 0 43 0;
#X connect 68 0 33 0;
#X connect 69 0 34 0;
#X connect 73 0 68 0;
#X connect 77 0 79 0;
#X connect 80 0 83 0;
#X connect 80 0 83 1;
#X connect 81 0 83 0;
#X connect 81 0 83 1;
#X connect 82 0 83 0;
#X connect 82 0 83 1;
#X connect 84 0 86 0;
#X connect 84 0 87 0;
#X connect 84 0 88 0;
#X coords 0 -1 1 1 1000 300 2 300 300;
